<svg width="500" height="500" viewBox="0 0 500 500" fill="none" xmlns="http://www.w3.org/2000/svg">
<g clip-path="url(#clip0_10_22)">
<path d="M499.227 94.824C498.619 96.04 497.859 97.56 496.947 99.384C496.339 100.904 495.579 102.88 494.667 105.312C492.539 109.872 490.107 115.344 487.371 121.728C484.635 127.808 481.595 134.496 478.251 141.792C471.867 155.776 464.723 170.976 456.819 187.392C449.219 203.808 441.923 219.312 434.931 233.904C436.451 233.904 437.667 234.056 438.579 234.36C439.795 234.36 441.011 234.36 442.227 234.36C449.523 234.36 455.299 233.144 459.555 230.712C463.203 228.888 465.939 227.976 467.763 227.976C470.499 227.976 471.867 229.04 471.867 231.168C471.867 233.296 470.043 235.576 466.395 238.008C461.835 240.744 455.755 243.632 448.155 246.672C440.555 249.408 433.107 250.624 425.811 250.32C418.819 265.216 412.131 279.048 405.747 291.816C399.667 304.28 393.891 318.416 388.419 334.224C384.163 346.992 382.035 356.112 382.035 361.584C382.035 364.624 382.795 367.056 384.315 368.88C385.835 370.4 388.723 371.16 392.979 371.16C396.931 371.16 401.643 369.944 407.115 367.512C415.627 363.864 424.443 358.088 433.563 350.184C442.683 342.28 451.347 333.616 459.555 324.192C467.763 314.768 474.451 306.104 479.619 298.2C482.355 294.248 484.787 292.272 486.915 292.272C488.131 292.272 488.739 293.032 488.739 294.552C488.739 296.072 487.523 298.808 485.091 302.76C479.923 310.968 472.931 320.088 464.115 330.12C455.603 339.848 446.483 348.816 436.755 357.024C427.027 365.232 417.603 371.312 408.483 375.264C401.795 378 395.259 379.368 388.875 379.368C368.811 379.368 358.779 368.88 358.779 347.904C358.779 340.304 360.147 331.792 362.883 322.368C366.835 308.08 371.243 295.16 376.107 283.608C380.971 272.056 386.747 259.744 393.435 246.672C384.011 245.456 375.347 244.392 367.443 243.48C359.843 242.264 351.027 241.504 340.995 241.2C336.435 247.888 331.723 255.032 326.859 262.632C322.299 270.232 317.739 278.136 313.179 286.344C294.939 318.568 275.787 346.536 255.723 370.248C235.659 393.656 214.683 411.896 192.795 424.968C171.211 438.04 148.715 444.576 125.307 444.576C111.323 444.576 98.4032 441.232 86.5472 434.544C74.6912 428.16 65.1152 418.888 57.8192 406.728C50.8272 394.872 47.3312 380.584 47.3312 363.864C47.3312 356.568 48.0912 348.968 49.6112 341.064C51.1312 332.856 53.5632 324.344 56.9072 315.528C63.5952 298.2 73.3232 282.544 86.0912 268.56C99.1632 254.272 113.603 243.024 129.411 234.816C145.219 226.304 160.571 222.048 175.467 222.048C188.843 222.048 200.243 226.456 209.667 235.272C219.395 243.784 224.259 256.4 224.259 273.12C224.259 281.024 222.891 289.992 220.155 300.024C214.683 318.568 206.931 332.856 196.899 342.888C186.867 352.616 176.683 359.456 166.347 363.408C158.747 366.144 151.299 367.512 144.003 367.512C138.835 367.512 134.275 366.752 130.323 365.232C126.675 363.712 124.243 361.432 123.027 358.392C122.723 357.48 122.571 356.416 122.571 355.2C122.571 351.856 123.939 350.184 126.675 350.184C129.411 350.184 131.083 351.856 131.691 355.2C131.995 356.112 133.059 357.176 134.883 358.392C137.011 359.304 140.051 359.76 144.003 359.76C146.435 359.76 149.019 359.456 151.755 358.848C154.491 358.24 157.379 357.328 160.419 356.112C168.323 352.768 176.379 346.84 184.587 338.328C193.099 329.512 199.787 316.744 204.651 300.024C207.691 289.992 209.211 280.568 209.211 271.752C209.211 257.768 205.715 247.28 198.723 240.288C191.731 233.296 183.523 229.8 174.099 229.8C159.507 229.8 146.587 234.208 135.339 243.024C124.395 251.84 114.819 263.24 106.611 277.224C98.4032 290.904 91.5632 305.192 86.0912 320.088C78.4912 340.76 74.6912 359.608 74.6912 376.632C74.6912 395.176 79.0992 409.768 87.9152 420.408C96.7312 431.048 109.499 436.368 126.219 436.368C144.155 436.368 161.179 432.112 177.291 423.6C193.707 415.088 209.363 403.536 224.259 388.944C239.155 374.352 253.291 357.784 266.667 339.24C280.043 320.392 292.811 300.632 304.971 279.96C309.227 272.968 313.331 266.28 317.283 259.896C321.235 253.208 325.187 246.976 329.139 241.2C318.195 241.2 307.707 241.96 297.675 243.48C287.947 244.696 279.283 247.888 271.683 253.056C264.083 257.92 257.851 265.976 252.987 277.224C252.075 278.744 251.011 280.416 249.795 282.24C248.883 283.76 247.667 284.672 246.147 284.976C245.843 284.976 245.539 285.128 245.235 285.432C245.235 285.432 245.083 285.432 244.779 285.432C242.651 285.432 241.587 284.216 241.587 281.784C241.587 281.176 241.891 279.96 242.499 278.136C243.107 276.312 244.171 274.032 245.691 271.296C257.547 250.928 271.835 237.552 288.555 231.168C305.579 224.48 323.059 221.288 340.995 221.592C359.843 194.232 377.627 171.888 394.347 154.56C411.067 137.232 426.267 123.704 439.947 113.976C453.627 104.248 465.483 97.56 475.515 93.912C485.547 89.96 492.995 87.984 497.859 87.984C499.379 87.984 500.139 88.744 500.139 90.264C500.139 92.088 499.835 93.608 499.227 94.824ZM477.795 105.768C475.059 105.768 471.411 106.832 466.851 108.96C462.595 111.088 458.491 113.52 454.539 116.256C450.587 118.688 447.699 120.512 445.875 121.728C434.323 130.24 420.491 142.704 404.379 159.12C388.571 175.232 371.395 196.36 352.851 222.504C362.883 222.808 371.547 223.72 378.843 225.24C386.139 226.456 394.043 227.824 402.555 229.344C411.979 211.104 421.707 194.232 431.739 178.728C441.771 163.224 450.891 149.24 459.099 136.776C467.611 124.312 473.843 113.976 477.795 105.768Z" fill="black"/>
</g>
<defs>
<clipPath id="clip0_10_22">
<rect width="500" height="500" fill="white"/>
</clipPath>
</defs>
</svg>
